<svg xmlns="http://www.w3.org/2000/svg" width="114px" height="37px" viewBox="0 0 228.94 74.26">
  <defs>
    <style>.cls-1 {
      fill: #12c3f4;
    }

    .cls-2 {
      fill: #fff;
    }</style>
  </defs>
  <g id="Layer_2" data-name="Layer 2">
    <g id="Layer_1-2" data-name="Layer 1">
      <path class="cls-1"
            d="M22.62,9.12a3.9,3.9,0,0,0-2.25.57,4.13,4.13,0,0,0-1.3,1.43A5,5,0,0,0,18.48,13a18.07,18.07,0,0,0-.12,2V27.44a10.92,10.92,0,0,1-.91,4.85,8.63,8.63,0,0,1-2.12,2.85,7.34,7.34,0,0,1-2.56,1.42,11.6,11.6,0,0,1-2.21.49v.24a11.41,11.41,0,0,1,2.21.53,8,8,0,0,1,2.56,1.47A9,9,0,0,1,17.45,42a8.83,8.83,0,0,1,.91,4.27v13a17.56,17.56,0,0,0,.12,2,5,5,0,0,0,.59,1.91,4.1,4.1,0,0,0,1.3,1.42,3.9,3.9,0,0,0,2.25.57h4.25v9.12h-10a8.17,8.17,0,0,1-3-.69,10.53,10.53,0,0,1-3.15-2A11.42,11.42,0,0,1,8.2,68.12a10.76,10.76,0,0,1-1-4.85V47.47a6,6,0,0,0-.79-3.17,6.68,6.68,0,0,0-1.89-2.08,8.3,8.3,0,0,0-2.36-1.14A8,8,0,0,0,0,40.72V33.63a7.68,7.68,0,0,0,2.13-.37A7,7,0,0,0,4.49,32a7.16,7.16,0,0,0,1.89-2.28,7,7,0,0,0,.79-3.46V11a10.71,10.71,0,0,1,1-4.84,11.17,11.17,0,0,1,2.48-3.42,10.37,10.37,0,0,1,3.15-2,8.17,8.17,0,0,1,3-.69h10V9.12Z"/>
      <path class="cls-1"
            d="M202.07,9.12V0h10a8.17,8.17,0,0,1,3,.69,10.37,10.37,0,0,1,3.15,2,11.34,11.34,0,0,1,2.48,3.42,10.85,10.85,0,0,1,1,4.84V26.3a7.11,7.11,0,0,0,.78,3.46A7.44,7.44,0,0,0,224.44,32a7,7,0,0,0,2.37,1.22,7.68,7.68,0,0,0,2.13.37v7.09a8,8,0,0,0-2.13.36,8.36,8.36,0,0,0-2.37,1.14,6.93,6.93,0,0,0-1.89,2.08,6.08,6.08,0,0,0-.78,3.17v15.8a10.89,10.89,0,0,1-1,4.85,11.6,11.6,0,0,1-2.48,3.42,10.53,10.53,0,0,1-3.15,2,8.17,8.17,0,0,1-3,.69h-10V65.14h4.25a3.92,3.92,0,0,0,2.25-.57,4.2,4.2,0,0,0,1.3-1.42,5.21,5.21,0,0,0,.59-1.91,17.56,17.56,0,0,0,.12-2v-13a9,9,0,0,1,.9-4.27,9.19,9.19,0,0,1,2.13-2.69,7.93,7.93,0,0,1,2.56-1.47,11.41,11.41,0,0,1,2.21-.53v-.24a11.6,11.6,0,0,1-2.21-.49,7.26,7.26,0,0,1-2.56-1.42,8.78,8.78,0,0,1-2.13-2.85,11.08,11.08,0,0,1-.9-4.85V15.06a18.07,18.07,0,0,0-.12-2,5.15,5.15,0,0,0-.59-1.91,4.23,4.23,0,0,0-1.3-1.43,3.92,3.92,0,0,0-2.25-.57Z"/>
      <polygon class="cls-2"
               points="47.81 27.45 47.81 58.25 39.31 58.25 39.31 27.45 27.55 27.45 27.55 19.61 59.57 19.61 59.57 27.45 47.81 27.45"/>
      <rect class="cls-1" x="57.31" y="37.11" width="17" height="8.06"/>
      <path class="cls-2"
            d="M105.38,33.13c0-3.81-2.65-5.85-6.9-5.85H91.91V39.09h6.73c4.25,0,6.74-2.54,6.74-5.85Zm-7,13.53H91.91V58.25h-8.5V19.61H99.19c9.22,0,14.8,5.46,14.8,13.36v.11c0,8.94-7,13.58-15.62,13.58"/>
      <path class="cls-2"
            d="M143.8,32.8c0-3.64-2.54-5.52-6.68-5.52h-8.45v11.1h8.61c4.14,0,6.52-2.21,6.52-5.47Zm-.17,25.45-8.28-12.37h-6.68V58.25h-8.5V19.61h17.66c9.11,0,14.58,4.8,14.58,12.75v.11a12,12,0,0,1-8.28,12l9.44,13.8Z"/>
      <path class="cls-2"
            d="M190.44,38.93c0-6.63-4.86-12.15-11.7-12.15s-11.6,5.41-11.6,12v.11c0,6.62,4.86,12.14,11.71,12.14s11.59-5.41,11.59-12Zm-11.7,20c-11.93,0-20.48-8.89-20.48-19.87v-.11c0-11,8.66-20,20.59-20s20.48,8.88,20.48,19.87v.11c0,11-8.67,20-20.59,20"/>
    </g>
  </g>
</svg>
