<svg id="logo_T_PRO_on_light" xmlns="http://www.w3.org/2000/svg" xmlns:xlink="http://www.w3.org/1999/xlink" width="117" height="39" viewBox="0 0 117 39">
  <defs>
    <clipPath id="clip-path">
      <rect id="Rectangle_1706" data-name="Rectangle 1706" width="117" height="39"/>
    </clipPath>
  </defs>
  <g id="Group_7882" data-name="Group 7882" clip-path="url(#clip-path)">
    <path id="Path_9352" data-name="Path 9352" d="M11.6,4.829a2.45,2.45,0,0,0-1.17.293,2.446,2.446,0,0,0-.682.731,3.236,3.236,0,0,0-.292.975A7.548,7.548,0,0,0,9.409,7.9v6.533a5.609,5.609,0,0,1-.488,2.535,4.743,4.743,0,0,1-1.072,1.511,3.51,3.51,0,0,1-1.316.731,4.623,4.623,0,0,1-1.121.244V19.6a4.216,4.216,0,0,1,1.121.292,4.478,4.478,0,0,1,1.316.78,4.352,4.352,0,0,1,1.072,1.414,5.023,5.023,0,0,1,.488,2.242v6.825a8.263,8.263,0,0,0,.049,1.072A4.047,4.047,0,0,0,9.75,33.25a1.955,1.955,0,0,0,.682.731,1.912,1.912,0,0,0,1.17.292H13.8v4.778H8.677a4.268,4.268,0,0,1-1.56-.341,4.9,4.9,0,0,1-1.609-1.072,6.865,6.865,0,0,1-1.316-1.8A6.387,6.387,0,0,1,3.656,33.3V25.011a3.77,3.77,0,0,0-.39-1.658,3.428,3.428,0,0,0-.975-1.073A4.011,4.011,0,0,0,1.072,21.7,2.044,2.044,0,0,0,0,21.453v-3.7a3.8,3.8,0,0,0,1.072-.2,3.387,3.387,0,0,0,1.219-.683,3.988,3.988,0,0,0,.975-1.219,3.272,3.272,0,0,0,.39-1.8V5.8a5.064,5.064,0,0,1,.536-2.535A5.069,5.069,0,0,1,5.46,1.514,7.122,7.122,0,0,1,7.069.441,3.467,3.467,0,0,1,8.629.1h5.119V4.878H11.6Z" transform="translate(0 -0.051)" fill="#12c3f4"/>
    <path id="Path_9353" data-name="Path 9353" d="M212.7,4.778V0h5.119a4.268,4.268,0,0,1,1.56.341,4.9,4.9,0,0,1,1.609,1.073,5.258,5.258,0,0,1,1.268,1.8,6.387,6.387,0,0,1,.536,2.535V13.8a3.761,3.761,0,0,0,.39,1.8,3.36,3.36,0,0,0,1.024,1.17,3.632,3.632,0,0,0,1.219.634,4.146,4.146,0,0,0,1.072.195v3.7a3.8,3.8,0,0,0-1.072.2,5.61,5.61,0,0,0-1.219.585,4.061,4.061,0,0,0-.975,1.073,2.792,2.792,0,0,0-.39,1.658V33.1a5.646,5.646,0,0,1-.536,2.535,5.767,5.767,0,0,1-1.268,1.8,7.122,7.122,0,0,1-1.609,1.072,3.467,3.467,0,0,1-1.56.341h-5.119V34.125h2.194a1.946,1.946,0,0,0,1.852-1.024,3.15,3.15,0,0,0,.292-1.024,7.545,7.545,0,0,0,.049-1.073V24.18a4.987,4.987,0,0,1,.439-2.243,5.16,5.16,0,0,1,1.072-1.414,4.479,4.479,0,0,1,1.316-.78,4.761,4.761,0,0,1,1.121-.292v-.146a7.574,7.574,0,0,1-1.121-.244,3.511,3.511,0,0,1-1.316-.731,4.744,4.744,0,0,1-1.072-1.511,5.578,5.578,0,0,1-.439-2.535V7.9a8.26,8.26,0,0,0-.049-1.072,4.046,4.046,0,0,0-.292-1.024,1.955,1.955,0,0,0-.682-.731,1.912,1.912,0,0,0-1.17-.293Z" transform="translate(-109.009)" fill="#12c3f4"/>
    <path id="Path_9354" data-name="Path 9354" d="M39.384,25.3V41.48H35.045V25.3H29V21.2H45.429v4.1Z" transform="translate(-14.863 -10.865)" fill="#16252e"/>
    <path id="Path_9355" data-name="Path 9355" d="M69.026,40H60.3v4.241h8.726Z" transform="translate(-30.904 -20.5)" fill="#12c3f4"/>
    <path id="Path_9356" data-name="Path 9356" d="M99.113,28.218c0-2-1.365-3.071-3.559-3.071H92.19v6.191h3.461c2.194,0,3.461-1.316,3.461-3.071v-.049Zm-3.559,7.117H92.239v6.094H87.9V21.1h8.092c4.729,0,7.605,2.876,7.605,7.02v.049c-.049,4.729-3.656,7.166-8.044,7.166" transform="translate(-45.049 -10.814)" fill="#16252e"/>
    <path id="Path_9357" data-name="Path 9357" d="M138.69,28.022c0-1.9-1.316-2.876-3.413-2.876h-4.339V31h4.436c2.145,0,3.364-1.17,3.364-2.876v-.1Zm-.1,13.406-4.241-6.484h-3.413v6.484H126.6V21.1h9.068c4.68,0,7.459,2.535,7.459,6.679v.1a6.328,6.328,0,0,1-4.241,6.338l4.826,7.264Z" transform="translate(-64.883 -10.814)" fill="#16252e"/>
    <path id="Path_9358" data-name="Path 9358" d="M183.126,30.933a6.114,6.114,0,0,0-6-6.386,5.991,5.991,0,0,0-5.947,6.289v.049a6.114,6.114,0,0,0,6,6.386,5.991,5.991,0,0,0,5.948-6.289Zm-6,10.53A10.284,10.284,0,0,1,166.6,31.03v-.049a10.555,10.555,0,0,1,21.109-.049v.049A10.425,10.425,0,0,1,177.13,41.463" transform="translate(-85.382 -10.506)" fill="#16252e"/>
  </g>
</svg>
